<?xml version="1.0" encoding="utf-8"?>
<!-- Generator: Adobe Illustrator 23.0.2, SVG Export Plug-In . SVG Version: 6.00 Build 0)  -->
<svg version="1.2" baseProfile="tiny" id="Layer_1" xmlns="http://www.w3.org/2000/svg" xmlns:xlink="http://www.w3.org/1999/xlink"
	 x="0px" y="0px" viewBox="0 0 94 41" xml:space="preserve">
<line fill="none" stroke="#EECBD4" stroke-width="4.3" stroke-linecap="round" stroke-linejoin="round" x1="30.1" y1="56.9" x2="30.1" y2="40"/>
<line fill="none" stroke="#EECBD4" stroke-width="4.3" stroke-linecap="round" stroke-linejoin="round" x1="21.5" y1="45.6" x2="21.5" y2="32.9"/>
<line fill="none" stroke="#EECBD4" stroke-width="4.3" stroke-linecap="round" stroke-linejoin="round" x1="21.5" y1="56.9" x2="21.5" y2="54.1"/>
<line fill="none" stroke="#EECBD4" stroke-width="4.3" stroke-linecap="round" stroke-linejoin="round" x1="38.7" y1="18.8" x2="38.7" y2="51.2"/>
<line fill="none" stroke="#EECBD4" stroke-width="4.3" stroke-linecap="round" stroke-linejoin="round" x1="47.3" y1="11.7" x2="47.3" y2="42.7"/>
<line fill="none" stroke="#EECBD4" stroke-width="4.3" stroke-linecap="round" stroke-linejoin="round" x1="51.6" y1="20.7" x2="51.6" y2="34.3"/>
<line fill="none" stroke="#EECBD4" stroke-width="4.3" stroke-linecap="round" stroke-linejoin="round" x1="55.9" y1="3.2" x2="55.9" y2="37.1"/>
<line fill="none" stroke="#EECBD4" stroke-width="4.3" stroke-linecap="round" stroke-linejoin="round" x1="55.9" y1="-6.7" x2="55.9" y2="-3.9"/>
<line fill="none" stroke="#EECBD4" stroke-width="4.3" stroke-linecap="round" stroke-linejoin="round" x1="38.7" y1="4.6" x2="38.7" y2="7.4"/>
<line fill="none" stroke="#FCF2F5" stroke-width="4.3" stroke-linecap="round" stroke-linejoin="round" x1="51.6" y1="-3.9" x2="51.6" y2="23"/>
<line fill="none" stroke="#EECBD4" stroke-width="4.3" stroke-linecap="round" stroke-linejoin="round" x1="60.2" y1="4.2" x2="60.2" y2="25.8"/>
<line fill="none" stroke="#EECBD4" stroke-width="4.3" stroke-linecap="round" stroke-linejoin="round" x1="64.5" y1="-19.4" x2="64.5" y2="20.1"/>
<line fill="none" stroke="#FCF2F5" stroke-width="4.3" stroke-linecap="round" stroke-linejoin="round" x1="60.2" y1="-12.3" x2="60.2" y2="6"/>
<line fill="none" stroke="#EECBD4" stroke-width="4.3" stroke-linecap="round" stroke-linejoin="round" x1="73.1" y1="-6.3" x2="73.1" y2="12"/>
<line fill="none" stroke="#FCF2F5" stroke-width="4.3" stroke-linecap="round" stroke-linejoin="round" x1="68.8" y1="-20.8" x2="68.8" y2="20.1"/>
<path fill="none" stroke="#FCF2F5" stroke-width="4.3" stroke-linecap="round" stroke-linejoin="round" d="M43,28.6l0,11.3"/>
<path fill="none" stroke="#FCF2F5" stroke-width="4.3" stroke-linecap="round" stroke-linejoin="round" d="M43,28.6l0,11.3"/>
<line fill="none" stroke="#FCF2F5" stroke-width="4.3" stroke-linecap="round" stroke-linejoin="round" x1="43" y1="47.1" x2="43" y2="49.8"/>
<line fill="none" stroke="#FCF2F5" stroke-width="4.3" stroke-linecap="round" stroke-linejoin="round" x1="43" y1="47.1" x2="43" y2="49.8"/>
<line fill="none" stroke="#FCF2F5" stroke-width="4.3" stroke-linecap="round" stroke-linejoin="round" x1="34.4" y1="41.4" x2="34.4" y2="48.4"/>
<line fill="none" stroke="#FCF2F5" stroke-width="4.3" stroke-linecap="round" stroke-linejoin="round" x1="34.4" y1="41.4" x2="34.4" y2="48.4"/>
<line fill="none" stroke="#FCF2F5" stroke-width="4.3" stroke-linecap="round" stroke-linejoin="round" x1="25.8" y1="49.9" x2="25.8" y2="55.5"/>
<line fill="none" stroke="#FCF2F5" stroke-width="4.3" stroke-linecap="round" stroke-linejoin="round" x1="25.8" y1="49.9" x2="25.8" y2="55.5"/>
</svg>
