<svg width="57" height="54" viewBox="0 0 57 54" fill="none" xmlns="http://www.w3.org/2000/svg">
<path d="M27.8204 53.3423C38.2741 53.3423 46.7486 52.3187 46.7486 51.056C46.7486 49.7934 38.2741 48.7698 27.8204 48.7698C17.3666 48.7698 8.8922 49.7934 8.8922 51.056C8.8922 52.3187 17.3666 53.3423 27.8204 53.3423Z" fill="#8F1234"/>
<path d="M4.2399 39.093C4.36644 42.926 5.2969 44.8751 6.48363 45.2075C7.67037 45.5398 15.3411 47.3284 27.5184 46.9269C39.6957 46.5255 45.9633 45.913 47.7758 45.2064C49.5883 44.4998 49.5517 39.5785 49.5517 39.5785C49.5517 39.5785 50.6299 34.6555 27.4482 35.4206C4.26648 36.1857 4.20906 38.1673 4.2399 39.093Z" fill="#D47567" stroke="#8F1234" stroke-width="0.5" stroke-linecap="round" stroke-linejoin="round"/>
<path d="M4.39993 38.715C4.39993 38.715 10.4208 41.911 26.631 41.911C42.8412 41.911 49.3677 39.3546 49.3677 39.3546" fill="#D47567"/>
<path d="M4.39993 38.715C4.39993 38.715 10.4208 41.911 26.631 41.911C42.8412 41.911 49.3677 39.3546 49.3677 39.3546" stroke="#8F1234" stroke-width="0.5" stroke-linecap="round" stroke-linejoin="round"/>
<path d="M7.35028 25.2239C6.76117 25.5492 4.10431 27.0172 3.50297 29.9516C3.18661 31.4983 3.55613 32.7781 3.78636 33.4358C5.22192 37.5671 8.60879 38.9792 12.5874 39.5428C19.3532 40.4999 18.335 44.6917 25.34 47.0269C32.3451 49.3621 35.884 47.5288 37.3148 45.1708C40.5475 39.8422 49.289 37.7468 50.5464 34.0345C51.8985 30.0431 47.7434 26.342 47.074 25.6524C40.162 18.5362 28.745 22.8344 11.0306 24.1557C9.74098 24.241 8.48524 24.6055 7.35028 25.2239Z" fill="#D69FAD"/>
<path d="M40.7936 38.6177C39.1454 36.2288 35.6894 36.1155 32.5524 37.0194C29.4154 37.9233 27.9485 40.5286 25.0556 40.5286C21.4401 40.5286 22.1313 38.6145 20.5894 37.7106C19.5839 37.1215 19.1831 37.7106 17.2929 37.7106C14.5281 37.7106 11.1008 30.6987 7.9883 32.8722C5.49573 34.613 8.53754 37.7957 11.8128 39.4205C12.068 39.4652 12.3257 39.506 12.5858 39.5428C19.3516 40.4999 18.3334 44.6917 25.3384 47.0269C32.3435 49.3621 35.8824 47.5288 37.3132 45.1708C38.4909 43.2301 40.397 41.718 42.4105 40.4004C41.7257 39.7215 41.1355 39.1153 40.7936 38.6177Z" fill="#EECBD4"/>
<path d="M39.1853 42.8888C38.4648 40.9375 37.0755 39.1994 35.4236 39.093C32.2988 38.8883 28.4052 42.9744 24.5239 42.9744C20.6426 42.9744 20.8552 39.0398 17.5587 40.5817C17.2732 40.7152 17.076 40.8939 16.9553 41.1097C19.451 42.8175 20.4054 45.3824 25.3384 47.0269C32.3435 49.3621 35.8824 47.5288 37.3132 45.1708C37.8188 44.3371 38.4595 43.5826 39.1853 42.8888Z" fill="#FCF2F5"/>
<path d="M7.35028 25.2239C6.76117 25.5492 4.10431 27.0172 3.50297 29.9516C3.18661 31.4983 3.55613 32.7781 3.78636 33.4358C5.22192 37.5671 8.60879 38.9792 12.5874 39.5428C19.3532 40.4999 18.335 44.6917 25.34 47.0269C32.3451 49.3621 35.884 47.5288 37.3148 45.1708C40.5475 39.8422 49.289 37.7468 50.5464 34.0345C51.8985 30.0431 47.7434 26.342 47.074 25.6524C40.162 18.5362 28.745 22.8344 11.0306 24.1557C9.74098 24.241 8.48524 24.6055 7.35028 25.2239V25.2239Z" stroke="#8F1234" stroke-width="0.5" stroke-linecap="round" stroke-linejoin="round"/>
<path d="M42.9411 35.352C42.9411 35.352 36.5981 32.2751 33.661 31.8195C30.851 31.3835 24.2049 33.1912 21.0679 32.0215C17.9309 30.8518 15.5915 28.6719 15.5915 28.6719" stroke="#8F1234" stroke-width="0.5" stroke-linecap="round" stroke-linejoin="round"/>
<path d="M38.1511 34.9325H48.8684C48.8684 34.9325 50.5449 34.873 52.1016 34.9325C53.6584 34.9921 53.1788 37.6867 53.1788 37.6867H37.5503L38.1511 34.9325Z" fill="#8F1234" stroke="#8F1234" stroke-width="0.5" stroke-linecap="round" stroke-linejoin="round"/>
<path d="M44.5575 40.5605C43.6004 41.5175 39.8254 41.996 38.8099 43.1349C37.7944 44.2738 36.5401 46.0268 36.5401 46.0268C36.6427 45.7609 35.8835 45.0059 35.0094 44.4822C33.9922 43.8724 32.8002 43.4816 32.3153 43.0467C31.1179 41.9689 32.6822 42.0141 33.812 40.654C34.4607 39.8725 34.8297 38.8357 35.0397 37.7505C35.523 35.2515 38.2692 33.648 40.5475 34.1584C42.5535 34.6071 40.8021 36.3846 40.8021 36.3846L44.5575 40.5605Z" fill="#8F1234"/>
<path d="M29.4686 38.5251C30.247 39.1834 31.4444 41.459 31.4444 41.459" stroke="#8F1234" stroke-width="0.5" stroke-linecap="round" stroke-linejoin="round"/>
<path d="M28.9311 40.8598C30.0684 39.9618 30.9664 39.2435 32.2238 39.1834" stroke="#8F1234" stroke-width="0.5" stroke-linecap="round" stroke-linejoin="round"/>
<path d="M41.504 37.6867C41.504 37.6867 41.8932 35.3818 43.9886 34.3041C46.0839 33.2263 48.7785 35.3818 49.1991 38.0163L41.504 37.6867Z" fill="#B25ED1" stroke="#8F1234" stroke-width="0.5" stroke-linecap="round" stroke-linejoin="round"/>
<path d="M38.7498 36.3096C40.6639 36.3096 50.2455 36.3697 52.4605 36.7881C54.6755 37.2066 56.1127 38.7022 55.9931 39.8416C55.8734 40.981 54.8552 41.4585 52.1016 41.4585H39.3485C36.4151 41.459 36.8341 36.3096 38.7498 36.3096Z" fill="#EF923F" stroke="#8F1234" stroke-width="0.5" stroke-linecap="round" stroke-linejoin="round"/>
<path d="M36.774 41.459C36.774 41.459 40.2167 38.884 42.939 38.884C44.6782 38.884 45.7851 40.5009 44.6176 40.5009C42.7082 40.5009 41.4274 41.8248 39.5192 42.4799C37.6109 43.1349 36.774 43.4369 36.774 43.4369" fill="#8F1234"/>
<path d="M44.5575 36.3723C44.5575 36.3723 47.192 37.4474 46.5933 40.8598C45.9946 44.2722 45.4555 46.9073 46.1738 47.0274C46.8921 47.1476 49.407 41.9982 49.4671 40.2021C49.5272 38.4061 49.6527 33.8867 45.0993 34.0207" fill="#B25ED1"/>
<path d="M44.5575 36.3723C44.5575 36.3723 47.192 37.4474 46.5933 40.8598C45.9946 44.2722 45.4555 46.9073 46.1738 47.0274C46.8921 47.1476 49.407 41.9982 49.4671 40.2021C49.5272 38.4061 49.6527 33.8867 45.0993 34.0207" stroke="#8F1234" stroke-width="0.5" stroke-linecap="round" stroke-linejoin="round"/>
<path d="M22.4777 37.7271C22.4777 37.7271 24.3871 36.2352 22.4777 35.3403C20.5684 34.4455 18.5384 36.0565 18.5384 36.0565C18.5384 36.0565 15.1356 33.3109 11.6754 30.7449C8.21514 28.179 4.0504 25.6035 4.0504 25.6035L28.3115 17.7089L49.3234 29.3811L43.3652 32.1177C43.3652 32.1177 42.2907 30.3871 40.2617 31.0432C38.2328 31.6993 39.6652 32.8935 39.6652 32.8935C39.6652 32.8935 30.1166 35.042 24.805 39.0999L22.4777 37.7271Z" fill="#CD7731" stroke="#8F1234" stroke-width="0.5" stroke-linecap="round" stroke-linejoin="round"/>
<path d="M22.4774 37.7271L22.6561 35.8178L24.6233 37.1305C24.6233 37.1305 30.7723 33.5496 39.4644 31.2697C39.4261 31.2819 39.6648 32.8935 39.6648 32.8935C39.6648 32.8935 29.8174 35.2803 24.8046 39.0999L22.4774 37.7271Z" fill="#CD7731" stroke="#8F1234" stroke-width="0.5" stroke-linecap="round" stroke-linejoin="round"/>
<path d="M35.129 20.0622L4.03625 23.8819L18.5982 34.0871C18.5982 34.0871 20.6867 32.4756 22.4795 33.4305C24.2724 34.3854 22.6582 35.8178 22.6582 35.8178L24.6255 37.1305C24.6255 37.1305 32.8613 33.6097 39.4857 31.2819C39.4857 31.2819 37.3371 31.1028 38.4712 30.1484C39.6053 29.194 42.1117 29.0143 43.1262 30.3871L49.213 27.7611L35.129 20.0622ZM29.6983 31.5802C28.0501 31.5802 26.7145 31.073 26.7145 30.4466C26.7145 29.8203 28.0501 29.3126 29.6983 29.3126C31.3466 29.3126 32.6822 29.8203 32.6822 30.4466C32.6822 31.073 31.346 31.5802 29.6983 31.5802Z" fill="#F8C939" stroke="#8F1234" stroke-width="0.5" stroke-linecap="round" stroke-linejoin="round"/>
<path d="M49.8467 29.698C52.2032 29.0978 52.6152 27.214 51.202 25.0941C49.7888 22.9743 43.0762 23.2098 40.8978 23.6809C38.7195 24.152 21.8197 25.6827 17.9336 24.3285C14.0475 22.9743 5.74457 22.5622 3.91928 23.3863C2.09398 24.2105 1.51763 25.7002 2.6597 27.9589C3.80178 30.2175 6.98129 30.2175 9.39569 29.4519C11.8101 28.6862 13.0463 27.2719 15.8728 27.9796C18.6992 28.6873 18.8167 30.688 21.7591 30.688C24.7015 30.688 27.9421 27.626 30.532 27.626C33.1219 27.626 35.3608 30.8646 37.8337 30.688C40.3066 30.5115 41.6023 26.5658 44.4873 26.5074C47.3722 26.4489 47.4929 30.2983 49.8467 29.698Z" fill="#88A80D" stroke="#8F1234" stroke-width="0.5" stroke-linecap="round" stroke-linejoin="round"/>
<path d="M3.9294 22.8573C4.0703 20.2988 6.49534 18.7484 10.2884 17.6935C13.7104 16.7423 19.4335 15.5385 26.2163 15.4715C32.6689 15.4072 37.4743 15.312 42.6482 16.9071C47.6307 18.449 49.07 19.6522 49.07 21.8747C49.07 22.6861 49.5894 24.2615 47.1181 25.2084C42.821 26.8566 33.5712 27.7573 26.2163 27.7573C18.3302 27.7573 9.34574 27.8801 5.37773 26.3845C3.51734 25.6859 3.88953 23.5873 3.9294 22.8573Z" fill="#D3548E" stroke="#8F1234" stroke-width="0.5" stroke-linecap="round" stroke-linejoin="round"/>
<path d="M3.21727 20.5327L3.21731 20.5327C3.45638 20.6523 3.83083 20.7699 4.30534 20.8857C4.78497 21.0028 5.38373 21.1221 6.082 21.2406C7.47888 21.4775 9.28391 21.7128 11.3502 21.9213C15.483 22.3382 20.6711 22.6487 25.7468 22.6487C30.8211 22.6487 36.6132 22.371 41.3095 21.9707C43.6574 21.7705 45.7348 21.5394 47.3133 21.2963C48.1021 21.1749 48.7704 21.0498 49.2871 20.9232C49.5455 20.86 49.7694 20.7954 49.9535 20.7295C50.1339 20.665 50.2907 20.5939 50.4047 20.5126C50.8176 20.2175 51.0319 19.7801 51.0949 19.251C51.157 18.7298 51.0746 18.1086 50.891 17.4105C50.5238 16.0137 49.7289 14.2285 48.7193 12.1598L48.7193 12.1597C47.4974 9.65831 44.728 6.93062 41.022 4.8298C37.3105 2.72586 32.6357 1.2365 27.5786 1.23462C21.8656 1.23248 16.7961 2.65887 12.8233 4.61674C8.85673 6.57154 5.96239 9.06692 4.61999 11.2222L4.8322 11.3544L4.61999 11.2222C3.30706 13.3303 2.61676 15.4527 2.40933 17.1344C2.30575 17.9742 2.32127 18.7148 2.44696 19.2934C2.56988 19.8593 2.8124 20.3302 3.21727 20.5327Z" fill="#D47567" stroke="#8F1234" stroke-width="0.5"/>
<path d="M48.4925 12.2644C46.1047 7.38243 37.5929 1.48758 27.5785 1.48386H27.5662C16.229 1.48386 7.45026 7.15009 4.83221 11.3536C4.24928 12.2865 3.76208 13.2758 3.37804 14.3066C5.81105 18.5485 15.7037 21.0527 27.2355 20.0399C37.0447 19.1785 45.2407 16.0176 48.4925 12.2644Z" fill="#FFB78A"/>
<path d="M43.6595 7.63019C43.6194 7.29597 43.5316 6.96921 43.3989 6.65986C39.5973 3.87539 34.2342 1.66196 28.2941 1.49554C26.517 1.50514 24.7418 1.61574 22.9772 1.82679C22.5621 1.87641 22.1506 1.93065 21.7426 1.98949C13.2834 3.46812 6.98289 7.90348 4.83486 11.3542C4.61934 11.7001 4.42067 12.0459 4.23883 12.3915C4.87154 16.8412 14.0868 19.4018 24.912 18.1162C35.7989 16.8231 44.1933 12.1283 43.6595 7.63019Z" fill="#FFC8A6"/>
<path d="M36.127 3.61325C35.8319 3.61325 35.4672 3.50053 35.1258 3.30381C34.8068 3.11984 34.5458 2.8859 34.3894 2.64451C34.256 2.43875 34.2188 2.25319 34.2868 2.13515C34.3703 1.99 34.5925 1.9682 34.717 1.9682C35.0126 1.9682 35.3773 2.08145 35.7181 2.27818C36.0371 2.46214 36.2982 2.69609 36.4545 2.93747C36.588 3.14324 36.6257 3.3288 36.5577 3.4463C36.4737 3.59199 36.2519 3.61325 36.127 3.61325Z" fill="#FCF2F5"/>
<path d="M25.1088 5.57412C24.9838 5.57412 24.7621 5.55286 24.6781 5.40717C24.6106 5.28967 24.6478 5.10411 24.7812 4.89835C24.9376 4.65696 25.1992 4.42302 25.5176 4.23905C25.8584 4.04233 26.2237 3.92908 26.5188 3.92908C26.6432 3.92908 26.8655 3.95088 26.9495 4.09603C27.0893 4.33901 26.7788 4.87814 26.1099 5.26574C25.7691 5.46141 25.4039 5.57412 25.1088 5.57412Z" fill="#FCF2F5"/>
<path d="M26.5215 1.77625C25.6596 1.77625 25.2284 1.55187 25.2103 1.4668C25.2284 1.38386 25.6596 1.15948 26.5215 1.15948C27.3833 1.15948 27.8145 1.38386 27.8326 1.46893C27.8145 1.55187 27.3839 1.77625 26.5215 1.77625Z" fill="#FCF2F5"/>
<path d="M31.1663 8.64092C30.6495 8.64092 30.2465 8.47078 30.2093 8.2363C30.187 8.10232 30.2869 7.94175 30.4842 7.79553C30.7149 7.62433 31.0414 7.49673 31.4045 7.43611C31.5472 7.41182 31.6916 7.39937 31.8363 7.3989C32.3531 7.3989 32.7561 7.56904 32.7933 7.80351C32.8396 8.07946 32.36 8.47663 31.5981 8.6037C31.4554 8.62802 31.311 8.64047 31.1663 8.64092Z" fill="#FCF2F5"/>
<path d="M10.3873 7.07134C10.2666 7.07134 10.1066 7.04795 10.0295 6.93682C9.86998 6.7066 10.1358 6.14301 10.7696 5.7033C11.1264 5.45607 11.5214 5.30826 11.8266 5.30826C11.9473 5.30826 12.1079 5.33165 12.185 5.44278C12.3445 5.673 12.0786 6.23659 11.4443 6.6763C11.0875 6.92566 10.6925 7.07134 10.3873 7.07134Z" fill="#FCF2F5"/>
<path d="M20.4969 3.18893C19.7791 3.18893 19.2852 2.90926 19.274 2.6482C19.2687 2.51262 19.3883 2.36535 19.602 2.24518C19.8519 2.10375 20.1922 2.01815 20.5591 2.00327C20.5968 2.00327 20.6341 2.00327 20.6707 2.00327C21.3891 2.00327 21.8825 2.2824 21.8936 2.54346C21.9053 2.82366 21.38 3.15703 20.608 3.1884C20.5713 3.18787 20.5362 3.18893 20.4969 3.18893Z" fill="#FCF2F5"/>
<path d="M32.504 4.97861C32.2574 4.97563 32.0127 4.93511 31.7783 4.85845C31.0419 4.62398 30.6235 4.16353 30.7085 3.89663C30.7617 3.72223 31.0398 3.61005 31.4114 3.61005C31.6582 3.61307 31.9031 3.65359 32.1377 3.73021C32.4881 3.84186 32.7938 4.01466 32.998 4.2167C33.1719 4.3895 33.2484 4.56283 33.2069 4.69203C33.1516 4.86643 32.8757 4.97861 32.504 4.97861Z" fill="#FCF2F5"/>
<path d="M17.3168 6.97884C16.5437 6.97884 16.0057 6.66727 16.0057 6.38707C16.0057 6.10687 16.5437 5.79477 17.3168 5.79477C18.0899 5.79477 18.628 6.10687 18.628 6.38707C18.628 6.66727 18.0904 6.97884 17.3168 6.97884Z" fill="#FCF2F5"/>
<path d="M9.1389 10.6018C8.62262 10.6018 8.21907 10.4316 8.18185 10.1972C8.15952 10.0632 8.26001 9.90262 8.45674 9.75641C8.68749 9.58521 9.01448 9.4576 9.37762 9.39699C9.52026 9.37267 9.66467 9.36022 9.80936 9.35977C10.3256 9.35977 10.7292 9.52991 10.7664 9.76439C10.7887 9.89837 10.6888 10.0589 10.4915 10.2052C10.2608 10.3764 9.93377 10.504 9.57063 10.5651C9.42795 10.589 9.28356 10.6013 9.1389 10.6018Z" fill="#FCF2F5"/>
<path d="M40.0296 9.66919C39.7446 9.66919 39.4091 9.57987 39.0853 9.4177C38.3941 9.07211 38.0517 8.55212 38.1772 8.30116C38.2389 8.17781 38.4186 8.10657 38.6706 8.10657C38.9551 8.10657 39.2906 8.19589 39.6149 8.35806C39.9392 8.52022 40.2189 8.74034 40.3896 8.97162C40.5347 9.16941 40.5836 9.35231 40.5225 9.47406C40.4613 9.59582 40.2811 9.66919 40.0296 9.66919Z" fill="#FCF2F5"/>
<path d="M45.0546 8.61433C44.7425 8.61433 44.3102 8.38251 43.9508 8.02415C43.6908 7.76415 43.4989 7.47012 43.4106 7.19683C43.3346 6.96342 43.3468 6.77466 43.4425 6.67843C43.4755 6.6494 43.5139 6.62725 43.5555 6.61328C43.5972 6.59931 43.6412 6.5938 43.685 6.59708C43.9971 6.59708 44.4293 6.82837 44.7888 7.18673C45.3348 7.73331 45.4948 8.33466 45.2971 8.53245C45.2641 8.56154 45.2257 8.58377 45.1841 8.59783C45.1425 8.61189 45.0984 8.6175 45.0546 8.61433Z" fill="#FCF2F5"/>
<path d="M48.2666 26.4005C46.9804 25.847 46.8778 23.4671 43.9599 23.4193C40.3678 23.3603 40.1317 28.3066 37.6003 29.0722C35.0689 29.8379 34.8919 24.4789 30.4166 25.4817C25.9414 26.4845 26.8245 28.6612 22.9974 29.4269C19.1703 30.1925 18.6987 25.9528 14.8716 25.4227C11.0445 24.8926 8.98311 27.7765 7.50979 27.2469C6.99512 27.0614 6.29169 26.6966 5.80838 26.0671C5.58082 25.771 4.00648 27.0406 4.00648 27.0406C2.12217 28.3358 -1.29288 25.7454 3.27062 29.4864C4.21065 30.2568 5.47608 30.9959 8.21535 30.8406C10.4415 30.7146 10.7871 30.0516 14.0443 28.6607C17.0951 27.3596 19.2852 32.3118 23.2303 31.9572C27.1754 31.6025 25.8824 30.4264 29.71 28.9542C33.5377 27.4819 34.5383 31.074 38.5425 31.2506C42.5466 31.4271 43.626 28.3071 45.7852 27.541C47.6105 26.8934 48.3979 31.7413 51.6731 28.3066C52.4908 27.449 51.7996 25.7476 50.8426 25.4285C49.8856 25.1095 49.784 27.0534 48.2666 26.4005Z" fill="#89D665"/>
<path d="M48.2666 26.4005C46.9974 25.8082 46.8778 23.4671 43.9599 23.4193C40.3678 23.3603 40.1317 28.3066 37.6003 29.0722C35.0689 29.8379 34.8919 24.4789 30.4166 25.4817C25.9414 26.4845 26.8245 28.6612 22.9974 29.4269C19.1703 30.1925 18.6987 25.9528 14.8716 25.4227C11.0445 24.8926 8.98311 27.7765 7.5098 27.2469C6.99512 27.0614 6.29169 26.6966 5.80838 26.0671C5.58082 25.771 4.00648 27.0406 4.00648 27.0406C2.12217 28.3358 -1.29288 25.7454 3.27062 29.4864C4.21065 30.2568 5.47608 30.9959 8.21535 30.8406C10.4415 30.7146 10.7871 30.0516 14.0443 28.6607C17.0951 27.3596 19.2852 32.3118 23.2303 31.9572C27.1754 31.6025 25.8824 30.4264 29.71 28.9542C33.5377 27.4819 34.5383 31.074 38.5425 31.2506C42.5466 31.4271 43.626 28.3071 45.7852 27.541C47.6105 26.8934 48.7158 32.3405 51.7263 28.4129C52.3313 27.626 51.906 26.1729 51.2148 25.1095" stroke="#8F1234" stroke-width="0.5" stroke-linecap="round" stroke-linejoin="round"/>
</svg>
