<svg xmlns="http://www.w3.org/2000/svg" viewBox="0 0 1500 1500"><defs><style>.cls-1{fill:#fcf2f5;}.cls-2,.cls-7{fill:#8f1234;}.cls-15,.cls-3{fill:#d47567;}.cls-10,.cls-11,.cls-12,.cls-13,.cls-14,.cls-3,.cls-6,.cls-7,.cls-8,.cls-9{stroke:#8f1234;stroke-linecap:round;stroke-linejoin:round;}.cls-10,.cls-11,.cls-12,.cls-13,.cls-14,.cls-3,.cls-6,.cls-7,.cls-9{stroke-width:6px;}.cls-4{fill:#d69fad;}.cls-5{fill:#eecbd4;}.cls-6,.cls-8{fill:none;}.cls-8{stroke-width:10px;}.cls-9{fill:#b25ed1;}.cls-10{fill:#ef923f;}.cls-11{fill:#cd7731;}.cls-12{fill:#f8c939;}.cls-13{fill:#88a80d;}.cls-14{fill:#d3548e;}.cls-16{fill:#ffb78a;}.cls-17{fill:#ffc8a6;}.cls-18{fill:#89d665;}</style></defs><title>SwanBurg_v3</title><g id="Layer_2" data-name="Layer 2"><g id="Swan"><rect id="Background" class="cls-1" width="1500" height="1500"/><ellipse id="Shadow" class="cls-2" cx="781" cy="1271" rx="356" ry="43"/><g id="Bun_-_Bottom" data-name="Bun - Bottom"><path id="Bun_-_Bottom-2" data-name="Bun - Bottom" class="cls-3" d="M337.5,1046c2.38,72.09,19.88,108.75,42.2,115s166.59,39.89,395.62,32.34,346.91-19.07,381-32.36,33.4-105.85,33.4-105.85S1210,962.54,774,976.93,336.92,1028.59,337.5,1046Z"/><path class="cls-3" d="M340.51,1038.89S453.75,1099,758.63,1099s427.63-48.08,427.63-48.08"/></g><g id="Swan-2" data-name="Swan"><path id="Swan-3" data-name="Swan" class="cls-4" d="M396,785.15c-11.08,6.12-61.05,33.73-72.36,88.92-5.95,29.09,1,53.16,5.33,65.53,27,77.7,90.7,104.26,165.53,114.86,127.25,18,108.1,96.84,239.85,140.76s198.31,9.44,225.22-34.91c60.8-100.22,225.21-139.63,248.86-209.45,25.43-75.07-52.72-144.68-65.31-157.65-130-133.84-344.73-53-677.9-28.15A167.84,167.84,0,0,0,396,785.15Z"/><path id="Swan_-_Highlight_2" data-name="Swan - Highlight 2" class="cls-5" d="M1025,1037.06C994,992.13,929,990,870,1007s-86.59,66-141,66c-68,0-55-36-84-53-18.91-11.08-26.45,0-62,0-52,0-116.46-131.88-175-91-46.88,32.74,10.33,92.6,71.93,123.16q7.2,1.26,14.54,2.3c127.25,18,108.1,96.84,239.85,140.76s198.31,9.44,225.22-34.91c22.15-36.5,58-64.94,95.87-89.72C1042.53,1057.82,1031.43,1046.42,1025,1037.06Z"/><path id="Swan_-_Highlight_1" data-name="Swan - Highlight 1" class="cls-1" d="M994.75,1117.39C981.2,1080.69,955.07,1048,924,1046c-58.77-3.85-132,73-205,73s-69-74-131-45c-5.37,2.51-9.08,5.87-11.35,9.93,46.94,32.12,64.89,80.36,157.67,111.29,131.75,43.92,198.31,9.44,225.22-34.91C969.05,1144.63,981.1,1130.44,994.75,1117.39Z"/><path id="Swan-4" data-name="Swan" class="cls-6" d="M396,785.15c-11.08,6.12-61.05,33.73-72.36,88.92-5.95,29.09,1,53.16,5.33,65.53,27,77.7,90.7,104.26,165.53,114.86,127.25,18,108.1,96.84,239.85,140.76s198.31,9.44,225.22-34.91c60.8-100.22,225.21-139.63,248.86-209.45,25.43-75.07-52.72-144.68-65.31-157.65-130-133.84-344.73-53-677.9-28.15A167.84,167.84,0,0,0,396,785.15Z"/><path class="cls-6" d="M1065.39,975.64s-119.3-57.87-174.54-66.44C838,901,713,935,654,913s-103-63-103-63"/><path class="cls-7" d="M975.3,967.75h201.57s31.53-1.12,60.81,0,20.26,51.8,20.26,51.8H964Z"/><path class="cls-2" d="M1095.79,1073.6c-18,18-89,27-108.1,48.42S945,1176.41,945,1176.41c1.93-5-12.35-19.2-28.79-29.05-19.13-11.47-41.55-18.82-50.67-27-22.52-20.27,6.9-19.42,28.15-45,12.2-14.7,19.14-34.2,23.09-54.61,9.09-47,60.74-77.16,103.59-67.56,37.73,8.44,4.79,41.87,4.79,41.87Z"/><path class="cls-8" d="M812,1035.32c14.64,12.38,37.16,55.18,37.16,55.18"/><path class="cls-8" d="M801.89,1079.23c21.39-16.89,38.28-30.4,61.93-31.53"/><path id="Tung_Back" data-name="Tung Back" class="cls-9" d="M1038.36,1019.55s7.32-43.35,46.73-63.62,90.09,20.27,98,69.82Z"/><path id="Beak_Front" data-name="Beak Front" class="cls-10" d="M986.56,993.65c36,0,216.21,1.13,257.87,9s68.69,36,66.44,57.43-21.4,30.41-73.19,30.41H997.82C942.65,1090.5,950.53,993.65,986.56,993.65Z"/><path class="cls-2" d="M949.4,1090.5s64.75-48.43,115.95-48.43c32.71,0,53.53,30.41,31.57,30.41-35.91,0-60,24.9-95.89,37.22s-51.63,18-51.63,18"/><path id="Tung_Front" data-name="Tung Front" class="cls-9" d="M1095.79,994.83s49.55,20.22,38.29,84.4-21.4,113.74-7.89,116,60.81-94.59,61.94-128.37,3.49-118.78-82.15-116.26"/></g><g id="Cheese"><path class="cls-11" d="M680.51,1020.31s35.91-28.06,0-44.89-74.09,13.47-74.09,13.47-64-51.64-129.08-99.9-143.41-96.7-143.41-96.7l456.3-148.48,395.19,219.53-112.06,51.47s-20.21-32.55-58.37-20.21-11.22,34.8-11.22,34.8-179.59,40.41-279.49,116.73Z"/><path class="cls-11" d="M680.51,1020.31l3.36-35.91,37,24.69S836.52,941.74,1000,898.86c-.72.23,3.77,30.54,3.77,30.54s-185.21,44.89-279.49,116.73Z"/><path class="cls-12" d="M918.46,688.07,333.67,759.91,607.55,951.85s39.28-30.31,73-12.35,3.36,44.9,3.36,44.9l37,24.69s154.9-66.22,279.49-110c0,0-40.41-3.37-19.08-21.32s68.47-21.33,87.55,4.49l114.48-49.39ZM816.32,904.7c-31,0-56.12-9.54-56.12-21.32s25.12-21.33,56.12-21.33,56.12,9.55,56.12,21.33S847.31,904.7,816.32,904.7Z"/></g><path id="Lettuce_-_BaCK" data-name="Lettuce - BaCK" class="cls-13" d="M1195.27,869.3c44.32-11.29,52.07-46.72,25.49-86.59s-152.83-35.44-193.8-26.58-358.82,37.65-431.91,12.18S365.8,735.09,331.47,750.59s-45.17,43.52-23.69,86,81.28,42.48,126.69,28.08,68.66-41,121.82-27.69S611.66,887.92,667,887.92s116.29-57.59,165-57.59,90.82,60.91,137.33,57.59,70.88-77.53,125.14-78.63S1151,880.59,1195.27,869.3Z"/><path id="Beetroot" class="cls-14" d="M331.66,740.64c2.65-48.12,48.26-77.28,119.6-97.12,64.36-17.89,172-40.53,299.57-41.79,121.36-1.21,211.74-3,309.05,27,93.71,29,120.78,51.63,120.78,93.43,0,15.26,9.77,44.89-36.71,62.7-80.82,31-254.79,47.94-393.12,47.94-148.32,0-317.3,2.31-391.93-25.82C323.91,793.84,330.91,754.37,331.66,740.64Z"/><g id="Bun_-_Top" data-name="Bun - Top"><g id="Bun_-_Base" data-name="Bun - Base"><path class="cls-15" d="M320.37,692.7c-22.67-11.34-20.44-90.21,28.27-168.42,49.26-79.09,214.47-185.71,427.81-185.63,188.41.07,348.53,111,393.39,202.84,38,77.86,59,132.77,33.19,151.21S932.58,732,742,732,352.33,708.68,320.37,692.7Z"/></g><g id="Bun_-_Shadow_2" data-name="Bun - Shadow 2"><path class="cls-16" d="M1169.8,541.41c-44.91-91.82-205-202.69-393.35-202.76h-.23c-213.23,0-378.34,106.57-427.58,185.63a307.18,307.18,0,0,0-27.35,55.54C367.05,659.6,553.11,706.7,770,687.65,954.49,671.45,1108.64,612,1169.8,541.41Z"/></g><g id="Bun_-_Shadow_1" data-name="Bun - Shadow 1"><path class="cls-17" d="M1078.9,454.25A66.34,66.34,0,0,0,1074,436c-71.5-52.37-172.37-94-284.09-97.13a882.17,882.17,0,0,0-100,6.23q-11.71,1.4-23.22,3.06c-159.1,27.81-277.6,111.23-318,176.13q-6.08,9.76-11.21,19.51c11.9,83.69,185.22,131.85,388.82,107.67C931.06,627.15,1088.94,538.85,1078.9,454.25Z"/></g><g id="Bun_-_Outline" data-name="Bun - Outline"><path class="cls-2" d="M776.45,344.65a493.11,493.11,0,0,1,133,18.58A514.46,514.46,0,0,1,1024,410.87c32.91,18.66,63.26,41,87.76,64.52,23.54,22.61,41.75,46.38,52.67,68.73,22.29,45.64,34.29,74.58,40.13,96.78,6.45,24.54,4.8,39.89-5,46.91-8.71,6.23-56.83,16.19-165.75,25.49C940.4,721.28,831.33,726,742,726c-86.78,0-182.56-4.84-269.7-13.64-75.48-7.62-134.08-17.46-149.28-25.06-3.31-1.65-6.16-6.22-8-12.84-4.08-14.47-3.2-36.75,2.41-61.12,6.61-28.68,19.16-58.39,36.31-85.92,26.09-41.91,82.11-86.86,149.85-120.25,57.88-28.54,152.16-62.55,272.63-62.55h.23m-.23-6c-213.23,0-378.34,106.57-427.58,185.63-48.71,78.21-50.94,157.08-28.27,168.42,32,16,231.11,39.33,421.66,39.33s435.19-20.89,461-39.33,4.84-73.35-33.19-151.21c-44.86-91.84-205-202.77-393.39-202.84Z"/></g><g id="Bun_-_Outline-2" data-name="Bun - Outline"><path class="cls-2" d="M776.45,344.65a493.11,493.11,0,0,1,133,18.58A514.46,514.46,0,0,1,1024,410.87c32.91,18.66,63.26,41,87.76,64.52,23.54,22.61,41.75,46.38,52.67,68.73,22.29,45.64,34.29,74.58,40.13,96.78,6.45,24.54,4.8,39.89-5,46.91-8.71,6.23-56.83,16.19-165.75,25.49C940.4,721.28,831.33,726,742,726c-86.78,0-182.56-4.84-269.7-13.64-75.48-7.62-134.08-17.46-149.28-25.06-3.31-1.65-6.16-6.22-8-12.84-4.08-14.47-3.2-36.75,2.41-61.12,6.61-28.68,19.16-58.39,36.31-85.92,26.09-41.91,82.11-86.86,149.85-120.25,57.88-28.54,152.16-62.55,272.63-62.55h.23m-.23-6c-213.23,0-378.34,106.57-427.58,185.63-48.71,78.21-50.94,157.08-28.27,168.42,32,16,231.11,39.33,421.66,39.33s435.19-20.89,461-39.33,4.84-73.35-33.19-151.21c-44.86-91.84-205-202.77-393.39-202.84Z"/></g></g><g id="Seeds_-_Front" data-name="Seeds - Front"><ellipse class="cls-1" cx="924.97" cy="379.23" rx="14.14" ry="27.66" transform="translate(134.06 990.67) rotate(-60)"/><ellipse class="cls-1" cx="743.26" cy="407.11" rx="27.66" ry="14.14" transform="translate(-103.98 426.17) rotate(-30)"/><ellipse class="cls-1" cx="756.57" cy="350.35" rx="27.66" ry="8.8"/><ellipse class="cls-1" cx="850.21" cy="468.58" rx="27.66" ry="14.14" transform="translate(-65.71 146.83) rotate(-9.51)"/><ellipse class="cls-1" cx="477.66" cy="435.16" rx="27.66" ry="14.14" transform="translate(-162.81 349.57) rotate(-34.72)"/><ellipse class="cls-1" cx="644.91" cy="368.55" rx="27.66" ry="14.14" transform="translate(-14.46 26.54) rotate(-2.33)"/><ellipse class="cls-1" cx="858.82" cy="398.51" rx="14.14" ry="27.66" transform="translate(218.51 1095.92) rotate(-72.34)"/><ellipse class="cls-1" cx="583.45" cy="437.85" rx="27.66" ry="14.14"/><ellipse class="cls-1" cx="435.93" cy="505.46" rx="27.66" ry="14.14" transform="translate(-77.49 78.93) rotate(-9.51)"/><ellipse class="cls-1" cx="997.85" cy="484.91" rx="14.14" ry="27.66" transform="translate(117.93 1160.61) rotate(-63.44)"/><ellipse class="cls-1" cx="1087.26" cy="469.79" rx="14.14" ry="27.66" transform="translate(-13.74 906.41) rotate(-45)"/></g><g id="Lettuce_-_Front" data-name="Lettuce - Front"><path id="Lettuce_-_Front-2" data-name="Lettuce - Front" class="cls-18" d="M1165.55,807.28c-24.19-10.41-26.12-55.17-81-56.07-67.56-1.11-72,91.92-119.61,106.32S914,771.14,829.83,790s-67.56,59.8-139.54,74.2-80.85-65.34-152.83-75.31S426.71,833.16,399,823.2c-9.68-3.49-22.91-10.35-32-22.19-4.28-5.57-33.89,18.31-33.89,18.31-35.44,24.36-99.67-24.36-13.84,46,17.68,14.49,41.48,28.39,93,25.47,41.87-2.37,48.37-14.84,109.63-41,57.38-24.47,98.57,68.67,172.77,62S744.55,883,816.54,855.31s90.81,39.87,166.12,43.19,95.61-55.36,136.22-69.77c34.33-12.18,49.14,79,110.74,14.4C1245,827,1232,795,1214,789S1194.09,819.56,1165.55,807.28Z"/><path id="Lettuce_-_Front-3" data-name="Lettuce - Front" class="cls-6" d="M1165.55,807.28c-23.87-11.14-26.12-55.17-81-56.07-67.56-1.11-72,91.92-119.61,106.32S914,771.14,829.83,790s-67.56,59.8-139.54,74.2-80.85-65.34-152.83-75.31S426.71,833.16,399,823.2c-9.68-3.49-22.91-10.35-32-22.19-4.28-5.57-33.89,18.31-33.89,18.31-35.44,24.36-99.67-24.36-13.84,46,17.68,14.49,41.48,28.39,93,25.47,41.87-2.37,48.37-14.84,109.63-41,57.38-24.47,98.57,68.67,172.77,62S744.55,883,816.54,855.31s90.81,39.87,166.12,43.19,95.61-55.36,136.22-69.77c34.33-12.18,55.12,90.27,111.74,16.4C1242,830.33,1234,803,1221,783"/></g></g></g></svg>